<svg width="29" height="28" viewBox="0 0 29 28" fill="none" xmlns="http://www.w3.org/2000/svg">
<g id="arrow.triangle.2.circlepath.camera">
<path id="arrow.triangle.2.circlepath.camera_2" d="M6.24902 21.8809H22.1924C24.0908 21.8809 25.0928 20.8965 25.0928 19.0156V9.78711C25.0928 7.90625 24.0908 6.92188 22.1924 6.92188H19.793C19.1074 6.92188 18.8877 6.80762 18.457 6.35938L17.7627 5.6123C17.3057 5.12891 16.8398 4.8916 15.9434 4.8916H12.4541C11.5576 4.8916 11.1006 5.12891 10.6348 5.6123L9.94043 6.35938C9.51855 6.79883 9.29004 6.92188 8.60449 6.92188H6.24902C4.35059 6.92188 3.35742 7.90625 3.35742 9.78711V19.0156C3.35742 20.8965 4.35059 21.8809 6.24902 21.8809ZM6.36328 20.1318C5.56348 20.1318 5.10645 19.71 5.10645 18.8574V9.94531C5.10645 9.10156 5.56348 8.67969 6.36328 8.67969H9.11426C9.90527 8.67969 10.3096 8.53906 10.7578 8.05566L11.4258 7.31738C11.918 6.78125 12.1816 6.64062 12.9551 6.64062H15.4424C16.2158 6.64062 16.4795 6.78125 16.9629 7.30859L17.6396 8.05566C18.0879 8.53906 18.4922 8.67969 19.2832 8.67969H22.0781C22.8867 8.67969 23.335 9.10156 23.335 9.94531V18.8574C23.335 19.71 22.8867 20.1318 22.0781 20.1318H6.36328ZM14.2295 9.18945C13.1924 9.18945 12.1904 9.54102 11.4873 10.1035C11.0566 10.4375 10.9512 10.8945 11.2412 11.2285C11.5225 11.5625 11.9355 11.5801 12.3135 11.3076C12.8936 10.8594 13.4824 10.6396 14.2295 10.6396C15.8027 10.6396 17.1123 11.6768 17.4902 13.0742H16.6289C16.2158 13.0742 16.0928 13.4785 16.3389 13.8125L17.7188 15.6934C17.9561 16.0273 18.3779 16.0449 18.624 15.6934L19.9775 13.8125C20.2236 13.4785 20.1094 13.0742 19.6875 13.0742H18.8965C18.4922 10.7891 16.6025 9.18945 14.2295 9.18945ZM8.73633 14.7002H9.5625C9.97559 16.9854 11.8652 18.585 14.2383 18.585C15.2754 18.585 16.2686 18.2422 16.9805 17.6709C17.4111 17.3457 17.5166 16.8799 17.2266 16.5459C16.9453 16.2119 16.5322 16.1943 16.1455 16.4668C15.5654 16.9062 14.9854 17.1348 14.2383 17.1348C12.665 17.1348 11.3555 16.0977 10.9688 14.7002H11.7949C12.208 14.7002 12.3311 14.2959 12.085 13.9619L10.7139 12.0811C10.4678 11.7471 10.0547 11.7383 9.7998 12.0811L8.44629 13.9619C8.20898 14.2959 8.31445 14.7002 8.73633 14.7002Z" fill="#191414" fill-opacity="0.5"/>
</g>
</svg>
