<svg width="44" height="44" viewBox="0 0 44 44" fill="none" xmlns="http://www.w3.org/2000/svg">
<g id="cart">
<path id="cart_2" d="M16.8759 29.3156H32.9524C33.6015 29.3156 34.1954 28.8045 34.1954 28.0725C34.1954 27.3544 33.6015 26.8433 32.9524 26.8433H17.1936C16.5307 26.8433 16.1163 26.3876 16.0196 25.6832L15.8125 24.2468H33.0629C35.176 24.2468 36.2947 22.9623 36.5986 20.863L37.6345 13.9435C37.6621 13.764 37.6897 13.5292 37.6897 13.3772C37.6897 12.5624 37.1234 12.0099 36.1704 12.0099H14.0308L13.8236 10.5183C13.6441 9.31669 13.1607 8.70898 11.6276 8.70898H6.89031C6.19974 8.70898 5.59204 9.31669 5.59204 10.0211C5.59204 10.7393 6.19974 11.347 6.89031 11.347H11.2133L13.354 25.9594C13.6579 28.0449 14.7628 29.3156 16.8759 29.3156ZM34.8169 14.4821L33.9468 20.6144C33.8363 21.3188 33.4634 21.7607 32.7867 21.7607L15.4534 21.7746L14.3899 14.4821H34.8169ZM18.0085 36.2489C19.3482 36.2489 20.4255 35.1716 20.4255 33.8319C20.4255 32.4922 19.3482 31.4149 18.0085 31.4149C16.6688 31.4149 15.5915 32.4922 15.5915 33.8319C15.5915 35.1716 16.6688 36.2489 18.0085 36.2489ZM30.7702 36.2489C32.1099 36.2489 33.1734 35.1716 33.1734 33.8319C33.1734 32.4922 32.1099 31.4149 30.7702 31.4149C29.4305 31.4149 28.3394 32.4922 28.3394 33.8319C28.3394 35.1716 29.4305 36.2489 30.7702 36.2489Z" fill="#191414"/>
</g>
</svg>
