<svg width="10" height="6" viewBox="0 0 10 6" fill="none" xmlns="http://www.w3.org/2000/svg">
<path id="chevron.backward" d="M5.17379 5.22949C5.34957 5.22949 5.50024 5.1642 5.63082 5.02358L9.45783 1.11621C9.56832 1.00572 9.62859 0.865095 9.62859 0.699358C9.62859 0.367885 9.36743 0.101702 9.03094 0.101702C8.8652 0.101702 8.71955 0.172014 8.60404 0.282506L5.17379 3.80315L1.74355 0.282506C1.62803 0.172015 1.47736 0.101702 1.31665 0.101702C0.980155 0.101702 0.718994 0.367885 0.718994 0.699358C0.718994 0.865095 0.779262 1.00572 0.889753 1.11621L4.71174 5.02358C4.84734 5.1642 4.99801 5.22949 5.17379 5.22949Z" fill="#191414"/>
</svg>
