<?xml version="1.0" standalone="no"?>
<!DOCTYPE svg PUBLIC "-//W3C//DTD SVG 20010904//EN"
 "http://www.w3.org/TR/2001/REC-SVG-20010904/DTD/svg10.dtd">
<svg version="1.0" xmlns="http://www.w3.org/2000/svg"
 width="694.000000pt" height="425.000000pt" viewBox="0 0 694.000000 425.000000"
 preserveAspectRatio="xMidYMid meet">
<metadata>
Created by potrace 1.16, written by Peter Selinger 2001-2019
</metadata>
<g transform="translate(0.000000,425.000000) scale(0.100000,-0.100000)"
fill="#127B82"  stroke="none">
<path d="M1730 2774 c0 -1 12 -33 28 -70 l27 -69 0 -400 c0 -427 2 -409 -50
-529 -8 -18 2 -18 306 -13 321 5 359 9 489 53 219 74 345 278 327 529 -17 236
-155 399 -402 473 -38 12 -130 17 -388 21 -185 3 -337 5 -337 5z m646 -110
c162 -82 248 -318 200 -546 -41 -192 -167 -318 -347 -347 -68 -11 -272 -15
-281 -5 -4 3 6 31 20 62 l27 57 5 325 c6 360 7 366 73 428 49 47 98 63 179 59
49 -3 83 -12 124 -33z"/>
<path d="M3012 2163 c3 -268 4 -280 27 -326 87 -176 322 -195 441 -35 l34 47
26 -47 c30 -55 97 -101 161 -109 39 -6 42 -5 34 13 -5 10 -11 147 -14 304 -6
310 -7 315 -68 372 -15 15 -48 34 -72 43 -81 28 -76 44 -76 -222 0 -222 -1
-240 -20 -265 -51 -70 -151 -76 -214 -14 l-36 36 -6 163 c-3 89 -10 174 -17
189 -17 42 -86 103 -130 116 -80 24 -74 45 -70 -265z"/>
<path d="M4120 2426 c-60 -17 -120 -49 -147 -78 -50 -53 -52 -121 -6 -158 58
-45 120 -8 134 80 16 106 115 154 200 97 44 -29 67 -78 71 -152 l3 -60 -108
-7 c-188 -11 -314 -66 -363 -158 -76 -141 48 -300 233 -300 83 0 170 48 213
119 26 41 40 51 40 28 0 -30 60 -95 111 -121 63 -31 116 -36 103 -8 -4 9 -11
132 -14 272 -6 284 -9 298 -82 366 -86 82 -256 117 -388 80z m254 -393 c-7
-78 -43 -163 -78 -187 -55 -36 -126 -32 -170 9 -49 45 -28 157 36 199 32 21
124 45 176 45 l43 1 -7 -67z"/>
</g>
</svg>
