<svg width="44" height="44" viewBox="0 0 44 44" fill="none" xmlns="http://www.w3.org/2000/svg">
<g id="globe.americas">
<path id="globe.americas_2" d="M22.0001 35.7238C29.8035 35.7238 36.2672 29.2739 36.2672 21.4566C36.2672 13.6532 29.8035 7.18945 21.9863 7.18945C14.1828 7.18945 7.73291 13.6532 7.73291 21.4566C7.73291 29.2739 14.1966 35.7238 22.0001 35.7238ZM21.4338 29.7987L22.2211 26.6635C19.9836 25.6553 19.3068 25.089 19.3068 24.0946C19.3068 23.1968 19.735 22.7411 20.025 22.1472C20.7018 20.7384 19.8041 19.5506 18.1881 19.5506C15.3844 19.5506 13.9342 18.4181 13.9342 16.2221C13.9342 14.2333 14.6386 12.3963 15.3706 11.4295C17.2766 10.1451 19.5555 9.39927 21.9863 9.39927C22.5387 9.39927 23.0912 9.44071 23.616 9.50977C24.6242 10.2141 25.1767 10.7528 25.1767 11.0705C25.1767 11.9682 24.4447 12.5206 23.8922 13.1422C23.3122 13.7913 23.3536 14.5371 23.9475 15.131C24.6104 15.7801 25.37 16.4569 26.4473 17.4789C26.5854 17.6032 26.6269 17.6999 26.6269 17.7828C26.6269 17.9209 26.544 18.0176 26.4059 18.0176C26.2954 18.0176 26.2125 17.99 26.0192 17.8518C25.8811 17.7552 25.1491 17.2718 24.7762 17.0093C24.4032 16.7607 24.058 16.7331 23.6022 16.885L21.2128 17.769C20.6466 17.9761 20.4256 18.5424 20.7294 19.0949L21.9724 21.498L23.2155 21.4842C24.348 21.4704 25.08 21.6638 25.5082 22.0643C26.0054 22.5201 26.7512 23.7769 26.7512 24.1498C26.7512 24.8128 26.544 25.2271 25.9777 25.8486L22.0415 30.1025C21.7515 30.4202 21.3233 30.2268 21.4338 29.7987ZM12.3459 16.2221C12.3459 19.3435 14.5143 21.139 18.3262 21.139C18.6163 21.139 18.782 21.3737 18.6025 21.65C17.9671 22.6444 17.7047 23.2797 17.7047 24.0946C17.7047 25.9729 19.224 26.995 20.4256 27.4922L19.9284 29.4534C19.3897 31.6218 21.8205 32.6715 23.3812 31.0003L26.7098 27.3955C27.8423 26.1663 28.3395 25.2133 28.3395 24.1498C28.3395 23.2935 27.3865 21.7467 26.5854 21.0008C25.7153 20.1998 24.8452 20.0479 23.4503 20.0479H22.8564L22.2625 18.9153L24.0165 18.2662C25.1629 18.9844 25.7568 19.4263 26.4197 19.4263C27.4141 19.4263 28.0771 18.791 28.0771 17.8795C28.0771 17.3546 27.8699 16.8989 27.4694 16.4983C26.4335 15.4763 25.9777 15.0205 25.2734 14.3161C25.1214 14.178 25.1353 14.109 25.3148 13.9018C25.9087 13.2388 26.765 12.2306 26.765 11.0705C26.765 10.8218 26.7374 10.5871 26.6407 10.3523C30.9637 12.203 34.0574 16.5121 34.0574 21.4566C34.0574 28.0446 28.5881 33.514 22.0001 33.514C15.412 33.514 9.94273 28.0446 9.94273 21.4566C9.94273 18.6391 10.951 16.0149 12.6083 13.957C12.4426 14.689 12.3459 15.4625 12.3459 16.2221Z" fill="#191414"/>
</g>
</svg>
