<svg width="44" height="44" viewBox="0 0 44 44" fill="none" xmlns="http://www.w3.org/2000/svg">
<g id="heart">
<path id="heart_2" d="M8.00903 17.576C8.00903 23.4734 12.9673 29.3018 20.6741 34.2739C21.1022 34.5502 21.6271 34.8264 21.9862 34.8264C22.3453 34.8264 22.8701 34.5502 23.2982 34.2739C31.0188 29.3018 35.9633 23.4734 35.9633 17.576C35.9633 12.4796 32.4414 8.94385 27.9251 8.94385C25.2871 8.94385 23.2292 10.1454 21.9862 11.9685C20.7708 10.1592 18.699 8.94385 16.0611 8.94385C11.5309 8.94385 8.00903 12.4796 8.00903 17.576ZM10.8542 17.5622C10.8542 14.0817 13.1469 11.7199 16.2268 11.7199C18.7129 11.7199 20.1078 13.2254 20.9779 14.5375C21.3646 15.1037 21.6271 15.2833 21.9862 15.2833C22.3591 15.2833 22.5939 15.0899 22.9944 14.5375C23.9336 13.253 25.2733 11.7199 27.7455 11.7199C30.8393 11.7199 33.1319 14.0817 33.1319 17.5622C33.1319 22.4238 28.077 27.8102 22.2486 31.6774C22.1243 31.7603 22.0414 31.8155 21.9862 31.8155C21.9309 31.8155 21.848 31.7603 21.7375 31.6774C15.9091 27.8102 10.8542 22.4238 10.8542 17.5622Z" fill="#191414"/>
</g>
</svg>
