<svg width="24" height="24" viewBox="0 0 24 24" fill="none" xmlns="http://www.w3.org/2000/svg">
<g id="line.3.horizontal">
<path id="line.3.horizontal_2" d="M4.95609 9.00663H19.0362C19.4128 9.00663 19.7217 8.69775 19.7217 8.32108C19.7217 7.94441 19.4128 7.64307 19.0362 7.64307H4.95609C4.57942 7.64307 4.27808 7.94441 4.27808 8.32108C4.27808 8.69022 4.57942 9.00663 4.95609 9.00663ZM4.95609 12.3967H19.0362C19.4128 12.3967 19.7217 12.0878 19.7217 11.7187C19.7217 11.3345 19.4128 11.0256 19.0362 11.0256H4.95609C4.57942 11.0256 4.27808 11.3345 4.27808 11.7187C4.27808 12.0878 4.57942 12.3967 4.95609 12.3967ZM4.95609 15.7943H19.0362C19.4128 15.7943 19.7217 15.4854 19.7217 15.1012C19.7217 14.7245 19.4128 14.4232 19.0362 14.4232H4.95609C4.57942 14.4232 4.27808 14.7321 4.27808 15.1012C4.27808 15.4779 4.57942 15.7943 4.95609 15.7943Z" fill="white"/>
</g>
</svg>
