<svg width="29" height="28" viewBox="0 0 29 28" fill="none" xmlns="http://www.w3.org/2000/svg">
<g id="magnifyingglass">
<path id="magnifyingglass_2" d="M13.23 19.0332C14.6274 19.0332 15.937 18.6113 17.0269 17.8906L20.8765 21.749C21.1313 21.9951 21.4565 22.1182 21.8081 22.1182C22.5376 22.1182 23.0737 21.5469 23.0737 20.8262C23.0737 20.4922 22.9595 20.167 22.7134 19.9209L18.8901 16.0801C19.6812 14.9551 20.147 13.5928 20.147 12.1162C20.147 8.31055 17.0356 5.19922 13.23 5.19922C9.43311 5.19922 6.31299 8.31055 6.31299 12.1162C6.31299 15.9219 9.42432 19.0332 13.23 19.0332ZM13.23 17.1875C10.4438 17.1875 8.15869 14.9023 8.15869 12.1162C8.15869 9.33008 10.4438 7.04492 13.23 7.04492C16.0161 7.04492 18.3013 9.33008 18.3013 12.1162C18.3013 14.9023 16.0161 17.1875 13.23 17.1875Z" fill="#191414" fill-opacity="0.5"/>
</g>
</svg>
