<svg width="44" height="44" viewBox="0 0 44 44" fill="none" xmlns="http://www.w3.org/2000/svg">
<g id="person">
<path id="person_2" d="M22 21.7604C25.3423 21.7604 28.0494 18.8048 28.0494 15.1862C28.0494 11.6228 25.3423 8.7915 22 8.7915C18.6714 8.7915 15.9368 11.6643 15.9506 15.2138C15.9644 18.8186 18.6576 21.7604 22 21.7604ZM22 19.3434C20.094 19.3434 18.4781 17.5341 18.4781 15.2138C18.4643 12.9487 20.0802 11.2085 22 11.2085C23.9336 11.2085 25.5219 12.9211 25.5219 15.1862C25.5219 17.5065 23.9197 19.3434 22 19.3434ZM13.3817 34.605H30.6045C32.9938 34.605 34.1402 33.8454 34.1402 32.2156C34.1402 28.4175 29.4029 23.3625 22 23.3625C14.5971 23.3625 9.84595 28.4175 9.84595 32.2156C9.84595 33.8454 10.9923 34.605 13.3817 34.605ZM12.9535 32.188C12.622 32.188 12.4977 32.0775 12.4977 31.8289C12.4977 29.7157 15.9091 25.7795 22 25.7795C28.077 25.7795 31.4884 29.7157 31.4884 31.8289C31.4884 32.0775 31.3641 32.188 31.0326 32.188H12.9535Z" fill="#191414"/>
</g>
</svg>
